<svg width="24" height="24" viewBox="0 0 24 24" fill="none" xmlns="http://www.w3.org/2000/svg">
<path d="M9.00005 9.74994H15" stroke="#9788bf" stroke-width="2" stroke-linecap="round" stroke-linejoin="round"/>
<path d="M9.00005 12.7499H15" stroke="#9788bf" stroke-width="2" stroke-linecap="round" stroke-linejoin="round"/>
<path d="M14.0315 18.3641L12.6431 20.6781C12.5764 20.7891 12.4822 20.8811 12.3695 20.9449C12.2568 21.0087 12.1295 21.0422 12 21.0422C11.8704 21.0422 11.7431 21.0087 11.6304 20.9449C11.5177 20.8811 11.4235 20.7891 11.3568 20.6781L9.96843 18.3641C9.9018 18.253 9.80754 18.1611 9.69484 18.0973C9.58213 18.0335 9.45483 18 9.32531 18H3.74995C3.55104 18 3.36028 17.9209 3.21962 17.7803C3.07897 17.6396 2.99995 17.4489 2.99995 17.25V5.25C2.99995 5.05109 3.07897 4.86032 3.21962 4.71967C3.36028 4.57902 3.55104 4.5 3.74995 4.5H20.25C20.4489 4.5 20.6396 4.57902 20.7803 4.71967C20.9209 4.86032 21 5.05109 21 5.25V17.25C21 17.4489 20.9209 17.6397 20.7803 17.7803C20.6396 17.921 20.4489 18 20.25 18L14.6746 18C14.5451 18 14.4178 18.0335 14.3051 18.0973C14.1924 18.1611 14.0981 18.253 14.0315 18.3641V18.3641Z" stroke="#9788bf" stroke-width="2" stroke-linecap="round" stroke-linejoin="round"/>
</svg>
