<svg width="12" height="12" viewBox="0 0 24 24" fill="none" xmlns="http://www.w3.org/2000/svg">
<path d="M10.125 11.9999L20.25 11.9999" stroke="#695E7E" stroke-width="2" stroke-linecap="round" stroke-linejoin="round"/>
<path d="M3.75 11.9999L6.375 11.9999" stroke="#695E7E" stroke-width="2" stroke-linecap="round" stroke-linejoin="round"/>
<path d="M10.125 11.9999C10.125 10.9643 9.28553 10.1249 8.25 10.1249C7.21447 10.1249 6.375 10.9643 6.375 11.9999C6.375 13.0354 7.21447 13.8749 8.25 13.8749C9.28553 13.8749 10.125 13.0354 10.125 11.9999Z" stroke="#695E7E" stroke-width="2" stroke-linecap="round" stroke-linejoin="round"/>
<path d="M17.625 5.24988L20.25 5.2498" stroke="#695E7E" stroke-width="2" stroke-linecap="round" stroke-linejoin="round"/>
<path d="M3.75 5.2498L13.875 5.24988" stroke="#695E7E" stroke-width="2" stroke-linecap="round" stroke-linejoin="round"/>
<path d="M17.625 5.24988C17.625 4.21434 16.7855 3.37488 15.75 3.37488C14.7145 3.37488 13.875 4.21434 13.875 5.24988C13.875 6.28541 14.7145 7.12488 15.75 7.12488C16.7855 7.12488 17.625 6.28541 17.625 5.24988Z" stroke="#695E7E" stroke-width="2" stroke-linecap="round" stroke-linejoin="round"/>
<path d="M14.625 18.7499L20.25 18.75" stroke="#695E7E" stroke-width="2" stroke-linecap="round" stroke-linejoin="round"/>
<path d="M3.75 18.75L10.875 18.7499" stroke="#695E7E" stroke-width="2" stroke-linecap="round" stroke-linejoin="round"/>
<path d="M14.625 18.7499C14.625 17.7143 13.7855 16.8749 12.75 16.8749C11.7145 16.8749 10.875 17.7143 10.875 18.7499C10.875 19.7854 11.7145 20.6249 12.75 20.6249C13.7855 20.6249 14.625 19.7854 14.625 18.7499Z" stroke="#695E7E" stroke-width="2" stroke-linecap="round" stroke-linejoin="round"/>
</svg>
