<svg width="24" height="24" viewBox="0 0 24 24" fill="none" xmlns="http://www.w3.org/2000/svg">
<path d="M12.0001 16.5002C14.4854 16.5002 16.5001 14.4855 16.5001 12.0002C16.5001 9.51496 14.4854 7.50024 12.0001 7.50024C9.51484 7.50024 7.50012 9.51496 7.50012 12.0002C7.50012 14.4855 9.51484 16.5002 12.0001 16.5002Z" stroke="#9788bf" stroke-width="2" stroke-linecap="round" stroke-linejoin="round"/>
<path d="M18.5068 7.561C18.7286 7.8867 18.9257 8.2286 19.0963 8.58381L21.5287 9.93414C21.825 11.2949 21.826 12.7034 21.5317 14.0645L19.0979 15.4156C18.9267 15.7706 18.7292 16.1121 18.5068 16.4375L18.5537 19.2192C17.5233 20.1562 16.3041 20.8613 14.9781 21.287L12.5912 19.8548C12.1982 19.8841 11.8036 19.8837 11.4106 19.8539L9.025 21.2853C7.69841 20.8615 6.47813 20.1581 5.44647 19.2227L5.49332 16.4394C5.2715 16.1137 5.07446 15.7718 4.90387 15.4166L2.47142 14.0663C2.17514 12.7055 2.17412 11.297 2.46843 9.93585L4.90224 8.58478C5.07339 8.22983 5.27097 7.88824 5.49331 7.5629L5.44649 4.78117C6.47679 3.8442 7.69605 3.13909 9.02203 2.71338L11.409 4.14559C11.802 4.11633 12.1966 4.11665 12.5895 4.14652L14.9751 2.7151C16.3017 3.1389 17.522 3.84225 18.5537 4.77772L18.5068 7.561Z" stroke="#9788bf" stroke-width="2" stroke-linecap="round" stroke-linejoin="round"/>
</svg>
