<svg width="40" height="40" viewBox="0 0 48 48" fill="none" xmlns="http://www.w3.org/2000/svg">
<path d="M27.96 32.2C28.2373 32.6267 28.664 33.0533 29.24 33.48C29.816 33.928 30.488 34.344 31.256 34.728C32.024 35.112 32.8453 35.4427 33.72 35.72C34.5947 36.0187 35.4907 36.2533 36.408 36.424C37.3467 36.5947 38.2427 36.68 39.096 36.68L39.32 37.32C38.5307 37.4693 37.72 37.5867 36.888 37.672C36.0773 37.7573 35.1813 37.8 34.2 37.8C32.5787 37.8 31.032 37.6293 29.56 37.288C28.1093 36.968 26.7333 36.456 25.432 35.752C24.152 35.048 22.9573 34.1413 21.848 33.032L27.96 32.2ZM23.704 33.352C22.04 33.352 20.5147 33.0747 19.128 32.52C17.7413 31.944 16.536 31.1653 15.512 30.184C14.488 29.1813 13.688 28.0187 13.112 26.696C12.5573 25.3733 12.28 23.9653 12.28 22.472C12.28 20.8507 12.5573 19.3573 13.112 17.992C13.688 16.6053 14.488 15.4 15.512 14.376C16.536 13.352 17.7413 12.5627 19.128 12.008C20.5147 11.432 22.04 11.144 23.704 11.144C25.368 11.144 26.904 11.432 28.312 12.008C29.72 12.5627 30.936 13.3413 31.96 14.344C32.984 15.3467 33.7733 16.5093 34.328 17.832C34.904 19.1333 35.192 20.5413 35.192 22.056C35.192 23.6773 34.904 25.1707 34.328 26.536C33.7733 27.9013 32.984 29.096 31.96 30.12C30.936 31.144 29.72 31.944 28.312 32.52C26.904 33.0747 25.368 33.352 23.704 33.352ZM23.704 32.232C25.048 32.232 26.2107 31.816 27.192 30.984C28.1733 30.152 28.9307 28.9787 29.464 27.464C30.0187 25.928 30.296 24.136 30.296 22.088C30.296 20.1467 30.0187 18.44 29.464 16.968C28.9307 15.496 28.1733 14.344 27.192 13.512C26.2107 12.68 25.048 12.264 23.704 12.264C22.4027 12.264 21.2613 12.68 20.28 13.512C19.2987 14.344 18.5307 15.528 17.976 17.064C17.4427 18.5787 17.176 20.3813 17.176 22.472C17.176 23.9013 17.3253 25.2133 17.624 26.408C17.944 27.6027 18.392 28.6373 18.968 29.512C19.544 30.3867 20.2267 31.0587 21.016 31.528C21.8267 31.9973 22.7227 32.232 23.704 32.232Z" fill="#CDC3EC"/>
<rect x="1" y="1" width="46" height="46" rx="9" stroke="#CDC3EC" stroke-width="2"/>
</svg>
