<svg width="20" height="20" viewBox="0 0 20 20" fill="none" xmlns="http://www.w3.org/2000/svg">
<path d="M11.0818 16.8762L17.955 5.0018C18.065 4.81179 18.123 4.59617 18.1232 4.37664C18.1233 4.1571 18.0657 3.94138 17.956 3.7512C17.8464 3.56101 17.6885 3.40306 17.4985 3.29324C17.3084 3.18342 17.0927 3.1256 16.8731 3.1256L3.12686 3.1256C2.90732 3.1256 2.69166 3.18342 2.50156 3.29324C2.31146 3.40306 2.15364 3.56101 2.04398 3.75119C1.93431 3.94138 1.87667 4.1571 1.87686 4.37664C1.87704 4.59617 1.93504 4.81179 2.04502 5.0018L8.91817 16.8762C9.02797 17.0659 9.18572 17.2234 9.3756 17.3329C9.56549 17.4424 9.78082 17.5 10 17.5C10.2192 17.5 10.4345 17.4424 10.6244 17.3329C10.8143 17.2234 10.972 17.0659 11.0818 16.8762V16.8762Z" fill="#695E7E"/>
</svg>
