<svg width="12" height="16" viewBox="0 0 12 24" fill="none" xmlns="http://www.w3.org/2000/svg">
<path d="M5.35088 1.87428L1.22699 8.99892C1.16101 9.11292 1.12621 9.2423 1.1261 9.37402C1.12599 9.50574 1.16057 9.63517 1.22637 9.74928C1.29217 9.86339 1.38686 9.95816 1.50092 10.0241C1.61498 10.0899 1.74438 10.1246 1.8761 10.1246H10.1239C10.2556 10.1246 10.385 10.09 10.4991 10.0241C10.6131 9.95817 10.7078 9.8634 10.7736 9.74928C10.8394 9.63517 10.874 9.50574 10.8739 9.37402C10.8738 9.2423 10.839 9.11292 10.773 8.99892L6.64909 1.87428C6.58321 1.76046 6.48856 1.66597 6.37463 1.60027C6.2607 1.53458 6.1315 1.5 5.99999 1.5C5.86847 1.5 5.73927 1.53458 5.62534 1.60027C5.51142 1.66597 5.41676 1.76046 5.35088 1.87428V1.87428Z" fill="black"/>
<path d="M6.64912 22.1257L10.773 15.0011C10.839 14.8871 10.8738 14.7577 10.8739 14.626C10.874 14.4943 10.8394 14.3648 10.7736 14.2507C10.7078 14.1366 10.6131 14.0418 10.4991 13.9759C10.385 13.9101 10.2556 13.8754 10.1239 13.8754L1.87613 13.8754C1.7444 13.8754 1.615 13.91 1.50095 13.9759C1.38689 14.0418 1.2922 14.1366 1.2264 14.2507C1.1606 14.3648 1.12601 14.4943 1.12612 14.626C1.12623 14.7577 1.16103 14.8871 1.22702 15.0011L5.35091 22.1257C5.41679 22.2395 5.51144 22.334 5.62537 22.3997C5.7393 22.4654 5.8685 22.5 6.00001 22.5C6.13153 22.5 6.26073 22.4654 6.37466 22.3997C6.48858 22.334 6.58324 22.2395 6.64912 22.1257V22.1257Z" fill="black"/>
</svg>
