<svg width="32" height="32" viewBox="0 0 44 44" fill="none" xmlns="http://www.w3.org/2000/svg">
<rect width="44" height="44" rx="12" fill="#9788BF"/>
<path d="M18.25 25C20.9424 25 23.125 22.8174 23.125 20.125C23.125 17.4326 20.9424 15.25 18.25 15.25C15.5576 15.25 13.375 17.4326 13.375 20.125C13.375 22.8174 15.5576 25 18.25 25Z" stroke="white" stroke-width="2" stroke-miterlimit="10"/>
<path d="M24.5699 15.4316C25.2405 15.2427 25.9437 15.1997 26.6322 15.3054C27.3208 15.4111 27.9787 15.6632 28.5616 16.0446C29.1445 16.426 29.639 16.9279 30.0116 17.5165C30.3842 18.1051 30.6264 18.7667 30.7218 19.4568C30.8172 20.1469 30.7636 20.8493 30.5646 21.517C30.3657 22.1846 30.026 22.8018 29.5684 23.327C29.1108 23.8523 28.5459 24.2734 27.9119 24.562C27.2779 24.8506 26.5893 24.9999 25.8927 25" stroke="white" stroke-width="2" stroke-linecap="round" stroke-linejoin="round"/>
<path d="M11.4996 28.5059C12.261 27.4229 13.2718 26.539 14.4466 25.9288C15.6215 25.3186 16.9259 25.0001 18.2497 25C19.5736 24.9999 20.878 25.3184 22.0529 25.9285C23.2278 26.5386 24.2386 27.4225 25.0001 28.5054" stroke="white" stroke-width="2" stroke-linecap="round" stroke-linejoin="round"/>
<path d="M25.8927 25C27.2167 24.999 28.5214 25.3171 29.6964 25.9273C30.8713 26.5375 31.882 27.4218 32.6427 28.5054" stroke="white" stroke-width="2" stroke-linecap="round" stroke-linejoin="round"/>
</svg>
